<svg xmlns:dc="http://purl.org/dc/elements/1.1/" xmlns:cc="http://creativecommons.org/ns#" xmlns:rdf="http://www.w3.org/1999/02/22-rdf-syntax-ns#" xmlns:svg="http://www.w3.org/2000/svg" xmlns="http://www.w3.org/2000/svg" id="svg225051" viewBox="0 0 1024 768" height="768px" width="1024px" version="1.1" style="background: rgb(255, 249, 235)">
  <metadata id="metadata225057">
    <rdf:rdf>
      <cc:work rdf:about="">
        <dc:format>image/svg+xml</dc:format>
        <dc:type rdf:resource="http://purl.org/dc/dcmitype/StillImage"></dc:type>
      </cc:work>
    </rdf:rdf>
  </metadata>
  <defs id="defs225055"></defs>
  <g id="logo-group">
    <g id="logo-center" transform="translate(164.49981800000006 0)">
      <g id="slogan" style="font-style:normal;font-weight:300;font-size:32px;line-height:1;font-family:MontserratLightAlt1;font-variant-ligatures:none;text-align:center;text-anchor:middle" transform="translate(0 0)"></g>
      <g id="title" style="font-style:normal;font-weight:300;font-size:72px;line-height:1;font-family:MontserratLightAlt1;font-variant-ligatures:normal;text-align:center;text-anchor:middle" transform="translate(0 0)">
        <path id="path225060" style="font-style:normal;font-weight:300;font-size:72px;line-height:1;font-family:MontserratLightAlt1;font-variant-ligatures:normal;text-align:center;text-anchor:middle" d="m 446.79275,-50.4 h -3.672 v 43.776 l -34.272,-43.776 h -3.096 V 0 h 3.672 V -43.776 L 443.76875,0 h 3.024 z" stroke-width="0" stroke-linejoin="miter" stroke-miterlimit="2" fill="#532031" stroke="#532031" transform="translate(0 353.656) translate(50 -40.71999999999998) scale(2.8) translate(-405.75275 50.4)"></path>
        <path id="path225062" style="font-style:normal;font-weight:300;font-size:72px;line-height:1;font-family:MontserratLightAlt1;font-variant-ligatures:normal;text-align:center;text-anchor:middle" d="m 497.00937,-27.216 h -32.616 v 3.24 h 32.616 z m 0,-23.184 h -32.616 v 3.312 h 32.616 z m -32.616,47.088 V 0 h 32.616 v -3.312 z" stroke-width="0" stroke-linejoin="miter" stroke-miterlimit="2" fill="#7a2632" stroke="#7a2632" transform="translate(0 353.656) translate(214.19373599999994 -40.71999999999998) scale(2.8) translate(-464.39337 50.4)"></path>
        <path id="path225064" style="font-style:normal;font-weight:300;font-size:72px;line-height:1;font-family:MontserratLightAlt1;font-variant-ligatures:normal;text-align:center;text-anchor:middle" d="m 543.53263,0 h 4.31999 l -19.36799,-26.064 18,-24.336 h -4.10401 l -16.056,21.672 -16.056,-21.672 h -4.32 l 18,24.408 L 504.58062,0 h 4.32 l 17.28,-23.328 z" stroke-width="0" stroke-linejoin="miter" stroke-miterlimit="2" fill="#a12d32" stroke="#a12d32" transform="translate(0 353.656) translate(326.718036 -40.71999999999998) scale(2.8) translate(-504.58062 50.4)"></path>
        <path id="path225066" style="font-style:normal;font-weight:300;font-size:72px;line-height:1;font-family:MontserratLightAlt1;font-variant-ligatures:normal;text-align:center;text-anchor:middle" d="m 562.31112,-5.184 c 3.528,3.744 8.49601,5.544 14.904,5.544 6.336,0 11.30401,-1.8 14.904,-5.544 3.528,-3.672 5.32801,-9.072 5.32801,-16.2 V -50.4 h -3.67201 v 28.872 c 0,6.192 -1.44,10.872 -4.248,13.896 -2.88,3.096 -6.91199,4.608 -12.23999,4.608 -5.40001,0 -9.504,-1.512 -12.312,-4.608 -2.88,-3.024 -4.24801,-7.704 -4.24801,-13.896 V -50.4 h -3.672 v 29.016 c 0,7.128 1.72801,12.528 5.256,16.2 z" stroke-width="0" stroke-linejoin="miter" stroke-miterlimit="2" fill="#c83333" stroke="#c83333" transform="translate(0 353.656) translate(473.64663599999994 -40.71999999999998) scale(2.8) translate(-557.05512 50.4)"></path>
        <path id="path225068" style="font-style:normal;font-weight:300;font-size:72px;line-height:1;font-family:MontserratLightAlt1;font-variant-ligatures:normal;text-align:center;text-anchor:middle" d="M 614.58087,-50.4 V 0 h 3.67201 v -50.4 z" stroke-width="0" stroke-linejoin="miter" stroke-miterlimit="2" fill="#ef3933" stroke="#ef3933" transform="translate(0 353.656) translate(634.7187359999999 -40.71999999999998) scale(2.8) translate(-614.58087 50.4)"></path>
      </g>
    </g>
  </g>
</svg>